<?xml version="1.0" encoding="utf-8"?>
<!-- Generator: Adobe Illustrator 25.4.1, SVG Export Plug-In . SVG Version: 6.00 Build 0)  -->
<svg version="1.1" id="Capa_1" xmlns="http://www.w3.org/2000/svg" xmlns:xlink="http://www.w3.org/1999/xlink" x="0px" y="0px"
	 viewBox="0 0 833 261" style="enable-background:new 0 0 833 261;" xml:space="preserve">
<style type="text/css">
	.st0{font-family:'Mont-HeavyDEMO';}
	.st1{font-size:191.0451px;}
	.st2{letter-spacing:2;}
</style>
<g>
	<g transform="translate(0.000000,261.000000) scale(0.100000,-0.100000)">
		<path d="M6110.4,2461c-268-28.4-497.1-190.2-608.5-429.8c-87.2-187.1-97.7-413-30.5-645.2c120.9-417.2,521.2-868,1084.5-1223.2
			c173.4-109.3,147.1-106.1,271.1-31.5c410.9,247,770.3,579,972.1,897.5c45.2,71.5,133.5,258.5,159.7,338.4
			c107.2,334.2,44.1,653.6-172.3,870.1c-97.7,97.7-169.2,142.9-293.2,185c-152.4,52.5-333.1,55.7-490.8,9.5
			c-65.2-20-203.9-85.1-266.9-125.1c-18.9-11.6-27.3-9.5-73.6,22.1c-66.2,44.1-208.1,100.9-298.4,118.7
			C6265.9,2467.3,6200.8,2470.5,6110.4,2461z M6190.3,2212c75.7-34.7,140.8-132.4,140.8-214.4c0-14.7,5.3-30.5,10.5-33.6
			c16.8-10.5,11.6-67.3-7.4-84.1c-69.4-59.9-119.8-97.7-148.2-109.3c-34.7-14.7-45.2-32.6-18.9-32.6c8.4,0,16.8-7.4,21-15.8
			c3.2-8.4,29.4-32.6,58.8-53.6c46.2-32.6,52.5-42,48.3-66.2c-4.2-22.1,5.3-38.9,50.4-88.3l56.7-61l64.1,76.7
			c45.2,54.6,63.1,83,58.8,98.8c-4.2,16.8,7.4,27.3,66.2,58.8c88.3,46.2,98.8,74.6,34.7,92.5c-41,10.5-116.6,72.5-116.6,94.6
			c0,6.3-15.8,10.5-35.7,10.5s-39.9,4.2-43.1,10.5c-8.4,14.7,11.6,119.8,31.5,161.8c24.2,50.4,87.2,110.3,141.9,135.6
			c58.8,26.3,157.6,27.3,213.3,3.2c100.9-44.1,175.5-156.6,175.5-263.8c0-45.2-1.1-47.3-31.5-47.3c-23.1,0-42-11.6-73.6-45.2
			c-25.2-28.4-57.8-50.4-84.1-58.8c-65.2-20-54.6-48.3,33.6-95.6c57.8-29.4,69.4-39.9,65.2-57.8c-3.2-13.7,9.5-37.8,38.9-73.6
			c24.2-28.4,51.5-63.1,62-76.7l18.9-23.1l58.8,59.9c50.4,52.5,57.8,65.2,52.5,92.5c-4.2,28.4,0,34.7,43.1,62
			c27.3,16.8,54.6,38.9,61,49.4c7.4,11.6,17.9,20,25.2,20c23.1,0,14.7,18.9-10.5,25.2c-13.7,3.2-46.2,25.2-72.5,48.3
			c-27.3,23.1-52.5,42-57.8,42c-25.2,0-47.3,42-42,75.7c30.5,176.5,56.7,228,142.9,273.2c125.1,65.2,269,15.8,327.9-112.4
			c10.5-23.1,20-54.6,20-69.4c0-15.8,7.4-33.6,15.8-41c31.5-25.2,10.5-115.6-26.3-115.6c-5.3,0-33.6-21-65.2-47.3
			c-30.5-26.3-66.2-50.4-78.8-53.6c-13.7-4.2-24.2-8.4-24.2-9.5c0-10.5,64.1-69.4,103-94.6c24.2-15.8,43.1-34.7,42-41
			c-2.1-7.4,12.6-31.5,31.5-55.7c44.1-56.7,72.5-121.9,80.9-187.1c11.6-84.1-22.1-137.7-57.8-95.6c-6.3,8.4-18.9,12.6-28.4,9.5
			c-24.2-9.5-34.7,17.9-28.4,70.4c5.3,38.9,1.1,53.6-18.9,83c-12.6,20-29.4,37.8-35.7,39.9c-14.7,5.3-26.3-62-13.7-71.5
			c5.3-3.2,18.9-83,31.5-177.6c17.9-149.2,25.2-177.6,47.3-207l26.3-34.7h-111.4c-105.1,0-111.4,1.1-120.9,24.2l-9.5,23.1l-7.4-23.1
			c-6.3-23.1-11.6-24.2-115.6-24.2c-59.9,0-109.3,2.1-109.3,5.3c0,3.2,9.5,18.9,21,34.7c16.8,22.1,26.3,69.4,43.1,201.8
			c12.6,95.6,25.2,175.5,29.4,178.6c8.4,7.4,8.4,74.6-1.1,71.5c-17.9-7.4-113.5-127.2-113.5-144c0-26.3-21-43.1-52.5-43.1
			c-32.6,0-68.3,33.6-59.9,56.7c3.2,8.4-21,45.2-58.8,90.4c-57.8,67.3-65.2,72.5-69.4,50.4c-1.1-12.6-8.4-27.3-13.7-30.5
			c-7.4-4.2,12.6-41,48.3-91.4c32.6-46.2,58.8-87.2,58.8-90.4c0-3.2-25.2-6.3-56.7-8.4l-57.8-3.2l68.3-120.9
			c36.8-66.2,76.7-128.2,88.3-138.7c11.6-9.5,21-20,21-23.1s-46.2-6.3-103-6.3h-103l-36.8,64.1c-29.4,53.6-36.8,61-46.2,46.2
			c-5.3-9.5-23.1-38.9-38.9-64.1l-29.4-46.2H6536c-96.7,0-119.8,8.4-82,29.4c9.5,6.3,49.4,66.2,87.2,134.5l69.4,125.1l-55.7,3.2
			c-30.5,2.1-55.7,7.4-55.7,11.6c0,5.3,25.2,44.1,56.7,86.2c35.7,48.3,53.6,82,47.3,88.3c-5.3,5.3-9.5,17.9-9.5,28.4
			c0,32.6-17.9,21-77.8-49.4c-38.9-46.2-55.7-73.6-51.5-87.2c9.5-38.9-73.6-73.6-99.8-41c-5.3,6.3-11.6,21-13.7,31.5
			c-4.2,17.9-104,141.9-115.6,142.9c-3.2,1.1-4.2-10.5-1.1-25.2c2.1-15.8,0-26.3-7.4-26.3c-8.4,0-7.4-7.4,3.2-23.1
			c8.4-13.7,23.1-94.6,32.6-181.8c12.6-104,24.2-166,36.8-183.9c9.5-14.7,21-32.6,25.2-38.9c5.3-10.5-16.8-13.7-103-13.7
			c-105.1,0-110.3,1.1-117.7,24.2l-7.4,23.1l-10.5-23.1c-9.5-23.1-16.8-24.2-119.8-24.2h-108.2l25.2,39.9
			c18.9,29.4,28.4,65.2,37.8,144c24.2,203.9,27.3,223.8,41,240.7c9.5,11.6,10.5,16.8,2.1,16.8c-7.4,0-9.5,9.5-5.3,26.3
			c9.5,37.8-10.5,32.6-44.1-10.5c-23.1-31.5-27.3-44.1-23.1-84.1c6.3-48.3-10.5-88.3-30.5-75.7c-6.3,4.2-16.8,0-24.2-8.4
			c-36.8-44.1-68.3,4.2-58.8,91.4c6.3,66.2,42,146.1,89.3,199.7c15.8,18.9,27.3,39.9,25.2,47.3c-2.1,7.4,22.1,30.5,53.6,51.5
			c32.6,21,58.8,45.2,58.8,52.5s8.4,14.7,18.9,16.8c12.6,3.2,5.3,10.5-25.2,27.3c-24.2,11.6-59.9,38.9-78.8,59.9
			c-18.9,20-43.1,36.8-53.6,36.8c-11.6,0-26.3,14.7-36.8,36.8c-16.8,35.7-16.8,37.8,5.3,68.3c12.6,16.8,23.1,43.1,23.1,57.8
			c0,34.7,36.8,112.4,67.3,140.8C5992.7,2230.9,6106.2,2249.8,6190.3,2212z M5957,934.1c3.2-9.5-1.1-18.9-9.5-21
			c-8.4-3.2-23.1-7.4-32.6-10.5c-22.1-7.4-8.4-26.3,17.9-26.3c28.4,0,22.1-33.6-6.3-42c-13.7-3.2-21-14.7-21-31.5
			c0-21-6.3-27.3-28.4-29.4l-29.4-3.2v83c0,45.2,3.2,86.2,7.4,89.3C5869.8,957.2,5950.7,949.9,5957,934.1z M6092.5,935.1
			c7.4-18.9-1.1-27.3-26.3-27.3c-10.5,0-18.9-7.4-18.9-15.8c0-9.5,9.5-15.8,22.1-15.8c14.7,0,20-5.3,17.9-17.9
			c-2.1-10.5-11.6-18.9-22.1-18.9c-25.2,0-23.1-20,3.2-26.3c12.6-3.2,22.1-8.4,22.1-12.6c-1.1-5.3-1.1-13.7-1.1-20
			c0-6.3-20-9.5-49.4-7.4l-50.4,3.2l-3.2,72.5c-2.1,39.9-1.1,78.8,2.1,87.2C5995.9,955.1,6085.2,955.1,6092.5,935.1z M6272.2,921.5
			l14.7-29.4l13.7,29.4c8.4,17.9,21,28.4,35.7,28.4c36.8,0,36.8-9.5,4.2-61c-17.9-28.4-30.5-63.1-30.5-83c0-30.5-3.2-34.7-26.3-34.7
			c-23.1,0-26.3,4.2-26.3,39.9c0,24.2-9.5,53.6-26.3,77.8c-32.6,48.3-32.6,61,0,61C6248.1,949.9,6261.7,940.4,6272.2,921.5z
			 M6600.1,900.5c9.5-28.4,24.2-65.2,31.5-84.1c7.4-17.9,10.5-35.7,6.3-38.9c-10.5-11.6-42-6.3-54.6,9.5
			c-7.4,8.4-22.1,15.8-33.6,15.8c-10.5,0-22.1-7.4-25.2-15.8c-6.3-14.7-47.3-22.1-58.8-10.5c-5.3,6.3,41,133.5,57.8,160.8
			c5.3,6.3,20,12.6,33.6,12.6C6577,949.9,6585.4,940.4,6600.1,900.5z M6721,937.2c0-7.4,0-36.8-1.1-64.1c-1.1-43.1,1.1-51.5,20-56.7
			c12.6-3.2,22.1-14.7,22.1-25.2c0-16.8-8.4-20-47.3-20h-47.3v82c0,45.2,3.2,86.2,7.4,89.3C6686.3,955.1,6719.9,950.9,6721,937.2z
			 M6907,926.7c3.2-13.7-3.2-18.9-23.1-18.9c-16.8,0-27.3-6.3-27.3-15.8c0-8.4,9.5-15.8,21-15.8c12.6,0,21-7.4,21-16.8
			s-9.5-18.9-21-22.1c-30.5-8.4-26.3-24.2,6.3-24.2c20,0,26.3-4.2,23.1-17.9c-3.2-14.7-14.7-18.9-55.7-18.9h-52.5l-3.2,72.5
			c-4.2,98.8-2.1,103,57.8,98.8C6891.2,945.6,6904.9,940.4,6907,926.7z M7061.5,937.2c14.7-6.3,26.3-17.9,26.3-24.2
			c0-17.9-43.1-28.4-59.9-14.7c-20,17.9-34.7,1.1-34.7-38.9c0-23.1,6.3-38.9,15.8-43.1c22.1-7.4,34.7,6.3,16.8,17.9
			c-26.3,15.8-4.2,42,35.7,42c33.6,0,36.8-2.1,36.8-31.5c0-69.4-90.4-99.8-141.9-47.3c-42,42-31.5,121.9,18.9,141.9
			C7007.9,952,7029.9,952,7061.5,937.2z M7262.2,927.8c17.9-14.7,18.9-45.2,2.1-71.5c-9.5-14.7-8.4-24.2,5.3-44.1
			c24.2-33.6,22.1-41-8.4-41c-18.9,0-32.6,10.5-46.2,32.6l-20,33.6l-4.2-30.5c-2.1-24.2-8.4-30.5-29.4-30.5
			c-25.2,0-26.3,3.2-29.4,72.5c-4.2,101.9-2.1,105.1,62,97.7C7223.3,942.5,7253.8,934.1,7262.2,927.8z M7369.4,858.4
			c3.2-87.2,3.2-87.2-24.2-87.2c-26.3,0-26.3,1.1-26.3,90.4c0,87.2,1.1,89.3,24.2,86.2C7364.1,944.6,7366.2,938.3,7369.4,858.4z
			 M7550.1,863.7c16.8-44.1,27.3-83,23.1-86.2c-11.6-12.6-45.2-6.3-50.4,9.5c-4.2,8.4-17.9,15.8-31.5,15.8
			c-14.7,0-28.4-7.4-31.5-15.8c-8.4-20-56.7-21-56.7-1.1c0,18.9,42,133.5,55.7,151.3c6.3,7.4,22.1,12.6,36.8,10.5
			C7516.5,944.6,7525.9,932,7550.1,863.7z"/>
		<path d="M6546.5,862.6c-4.2-10.5-5.3-22.1-1.1-25.2c10.5-10.5,18.9,4.2,13.7,25.2C6554.9,880.5,6554.9,880.5,6546.5,862.6z"/>
		<path d="M7192.8,892.1c0-9.5,5.3-15.8,11.6-13.7s11.6,8.4,11.6,13.7s-5.3,11.6-11.6,13.7C7198.1,907.8,7192.8,901.5,7192.8,892.1z
			"/>
		<path d="M7483.9,861.6c-4.2-10.5-5.3-22.1-2.1-25.2c9.5-9.5,17.9,6.3,13.7,26.3C7492.3,880.5,7491.3,880.5,7483.9,861.6z"/>
	</g>
	<text transform="matrix(1 0 0 1 31.9941 162.8623)" class="st0 st1 st2">IUJO</text>
	<g>
		<g>
			<path d="M48.7,178.9h18v4.5H54v7.7h10.8v4.5H54v8.9h13.2v4.5H48.7V178.9z"/>
			<path d="M77.3,197.1l-6.7-10.8h5.7l2.5,4.3c0.7,1.2,1.4,2.5,2.1,3.8h0.2c0.6-1.2,1.2-2.5,1.8-3.8l2.1-4.3h5.5l-6.7,11.4l7.1,11.1
				h-5.7l-2.7-4.5c-0.7-1.3-1.5-2.7-2.3-4h-0.2c-0.7,1.3-1.3,2.6-2,4l-2.4,4.5h-5.5L77.3,197.1z"/>
			<path d="M95.8,201.2v-10.7h-3.2v-4l3.5-0.2l0.6-6.1h4.4v6.1h5.7v4.2H101v10.7c0,2.6,1,4,3.2,4c0.8,0,1.7-0.3,2.3-0.5l0.9,3.9
				c-1.2,0.4-2.8,0.8-4.6,0.8C97.7,209.4,95.8,206.1,95.8,201.2z"/>
			<path d="M110,197.6c0-7.3,5.1-11.8,10.4-11.8c6.1,0,9.3,4.4,9.3,10.7c0,1-0.1,2-0.2,2.6h-14.3c0.4,4,3,6.3,6.6,6.3
				c1.9,0,3.6-0.6,5.2-1.6l1.8,3.3c-2.1,1.4-4.9,2.4-7.7,2.4C114.9,209.4,110,205,110,197.6z M125.1,195.4c0-3.5-1.5-5.6-4.6-5.6
				c-2.6,0-4.9,2-5.4,5.6H125.1z"/>
			<path d="M134.7,186.3h4.3l0.4,3h0.1c2-2,4.3-3.6,7.4-3.6c4.8,0,6.9,3.3,6.9,8.9v14.1h-5.3v-13.4c0-3.7-1.1-5.1-3.5-5.1
				c-2,0-3.3,1-5.1,2.8v15.7h-5.3V186.3z"/>
			<path d="M158.2,206.2l2.5-3.4c2,1.6,3.9,2.5,6.2,2.5c2.5,0,3.6-1.2,3.6-2.7c0-1.9-2.4-2.7-4.8-3.6c-3-1.1-6.3-2.8-6.3-6.6
				c0-3.9,3.2-6.7,8.2-6.7c3.1,0,5.6,1.3,7.5,2.7l-2.4,3.2c-1.6-1.2-3.2-2-4.9-2c-2.3,0-3.3,1.1-3.3,2.5c0,1.8,2.3,2.5,4.7,3.4
				c3,1.1,6.5,2.6,6.5,6.8c0,3.9-3.1,7-8.7,7C163.6,209.4,160.4,208,158.2,206.2z"/>
			<path d="M179.6,179.4c0-1.8,1.4-3,3.3-3s3.3,1.2,3.3,3c0,1.7-1.4,3-3.3,3S179.6,181.1,179.6,179.4z M180.2,186.3h5.3v22.5h-5.3
				V186.3z"/>
			<path d="M190.7,197.6c0-7.5,5.1-11.8,10.7-11.8c5.6,0,10.7,4.3,10.7,11.8c0,7.5-5.1,11.8-10.7,11.8
				C195.8,209.4,190.7,205,190.7,197.6z M206.7,197.6c0-4.5-2-7.5-5.3-7.5c-3.3,0-5.3,3-5.3,7.5s2,7.5,5.3,7.5
				C204.7,205.1,206.7,202.1,206.7,197.6z M198.7,180l6.8-8l3.6,3.5l-7.8,7.1L198.7,180z"/>
			<path d="M217.3,186.3h4.3l0.4,3h0.1c2-2,4.3-3.6,7.4-3.6c4.8,0,6.9,3.3,6.9,8.9v14.1h-5.3v-13.4c0-3.7-1.1-5.1-3.5-5.1
				c-2,0-3.3,1-5.1,2.8v15.7h-5.3V186.3z"/>
			<path d="M252.6,178.9h9.6c6.2,0,10.7,1.9,10.7,7.4c0,2.8-1.5,5.6-4.2,6.5v0.2c3.3,0.8,5.8,3.1,5.8,7.1c0,6-4.9,8.8-11.5,8.8
				h-10.4V178.9z M261.7,191.2c4.2,0,6-1.6,6-4.2c0-2.9-2-4-5.8-4h-3.9v8.2H261.7z M262.4,204.7c4.4,0,6.9-1.6,6.9-4.9
				c0-3.2-2.4-4.5-6.9-4.5h-4.5v9.5H262.4z"/>
			<path d="M278.3,202.8c0-4.8,4-7.3,13.2-8.3c-0.1-2.4-1-4.4-4.1-4.4c-2.2,0-4.3,1-6.3,2.2l-1.9-3.5c2.5-1.6,5.7-3,9.2-3
				c5.6,0,8.4,3.5,8.4,9.7v13.3h-4.3l-0.4-2.5h-0.1c-2,1.7-4.3,3-7,3C281,209.4,278.3,206.7,278.3,202.8z M291.5,202.8v-5.1
				c-6.1,0.8-8.1,2.4-8.1,4.6c0,2,1.4,2.9,3.2,2.9C288.5,205.2,289.9,204.3,291.5,202.8z"/>
			<path d="M303.2,186.3h4.3l0.4,4h0.1c1.6-2.9,4-4.6,6.4-4.6c1.1,0,1.9,0.1,2.5,0.5l-0.9,4.6c-0.8-0.2-1.4-0.4-2.3-0.4
				c-1.8,0-4,1.2-5.3,4.7v13.7h-5.3V186.3z"/>
			<path d="M334.1,210.3l0.2-3.7c-1.6,1.6-3.9,2.8-6.2,2.8c-5.6,0-9.2-4.4-9.2-11.8c0-7.3,4.6-11.8,9.5-11.8c2.5,0,4.3,0.9,6.2,2.7
				h0.1l0.5-2.2h4.2v31.4h-5.3V210.3z M334.1,202.5V192c-1.5-1.4-3.1-1.9-4.6-1.9c-2.9,0-5.2,2.7-5.2,7.4c0,4.9,1.9,7.5,5.1,7.5
				C331.2,205,332.6,204.2,334.1,202.5z"/>
			<path d="M345.8,200.4v-14.1h5.3v13.4c0,3.7,1.1,5.1,3.5,5.1c2,0,3.3-0.9,5-3.1v-15.4h5.3v22.5h-4.3l-0.4-3.3H360
				c-2,2.3-4.2,3.9-7.2,3.9C347.9,209.4,345.8,206.1,345.8,200.4z"/>
			<path d="M371,179.4c0-1.8,1.4-3,3.3-3s3.3,1.2,3.3,3c0,1.7-1.4,3-3.3,3S371,181.1,371,179.4z M371.6,186.3h5.3v22.5h-5.3V186.3z"
				/>
			<path d="M381.3,206.2l2.5-3.4c2,1.6,3.9,2.5,6.2,2.5c2.5,0,3.6-1.2,3.6-2.7c0-1.9-2.4-2.7-4.8-3.6c-3-1.1-6.3-2.8-6.3-6.6
				c0-3.9,3.2-6.7,8.2-6.7c3.1,0,5.6,1.3,7.5,2.7l-2.4,3.2c-1.6-1.2-3.2-2-4.9-2c-2.3,0-3.3,1.1-3.3,2.5c0,1.8,2.3,2.5,4.7,3.4
				c3,1.1,6.5,2.6,6.5,6.8c0,3.9-3.1,7-8.7,7C386.8,209.4,383.5,208,381.3,206.2z"/>
			<path d="M402.7,179.4c0-1.8,1.4-3,3.3-3c1.9,0,3.3,1.2,3.3,3c0,1.7-1.4,3-3.3,3C404.1,182.4,402.7,181.1,402.7,179.4z
				 M403.3,186.3h5.3v22.5h-5.3V186.3z"/>
			<path d="M415.3,186.3h4.3l0.4,3.1h0.1c1.9-2,4.1-3.6,6.9-3.6c3.3,0,5.2,1.5,6.2,4c2.2-2.3,4.4-4,7.2-4c4.7,0,6.9,3.3,6.9,8.9
				v14.1h-5.3v-13.4c0-3.7-1.1-5.1-3.5-5.1c-1.4,0-3,0.9-4.7,2.8v15.7h-5.3v-13.4c0-3.7-1.1-5.1-3.5-5.1c-1.4,0-3,0.9-4.7,2.8v15.7
				h-5.3V186.3z"/>
			<path d="M452.5,197.6c0-7.3,5.1-11.8,10.4-11.8c6.1,0,9.3,4.4,9.3,10.7c0,1-0.1,2-0.2,2.6h-14.3c0.4,4,3,6.3,6.6,6.3
				c1.9,0,3.6-0.6,5.2-1.6l1.8,3.3c-2.1,1.4-4.9,2.4-7.7,2.4C457.4,209.4,452.5,205,452.5,197.6z M467.6,195.4
				c0-3.5-1.5-5.6-4.6-5.6c-2.6,0-4.9,2-5.4,5.6H467.6z"/>
			<path d="M478,201.2v-10.7h-3.2v-4l3.5-0.2l0.6-6.1h4.4v6.1h5.7v4.2h-5.7v10.7c0,2.6,1,4,3.2,4c0.8,0,1.7-0.3,2.3-0.5l0.9,3.9
				c-1.2,0.4-2.8,0.8-4.6,0.8C479.9,209.4,478,206.1,478,201.2z"/>
			<path d="M492.3,197.6c0-7.5,5.1-11.8,10.7-11.8c5.6,0,10.7,4.3,10.7,11.8c0,7.5-5.1,11.8-10.7,11.8
				C497.4,209.4,492.3,205,492.3,197.6z M508.2,197.6c0-4.5-2-7.5-5.3-7.5c-3.3,0-5.3,3-5.3,7.5s2,7.5,5.3,7.5
				C506.3,205.1,508.2,202.1,508.2,197.6z"/>
		</g>
	</g>
</g>
</svg>
